<?xml version="1.0" encoding="utf-8"?>
<!-- Designed by Vexels.com - 2016 All Rights Reserved - https://vexels.com/terms-and-conditions/  -->

<svg version="1.1" id="Layer_1" xmlns="http://www.w3.org/2000/svg" xmlns:xlink="http://www.w3.org/1999/xlink" x="0px" y="0px"
	 width="1200px" height="1200px" viewBox="0 0 1200 1200" enable-background="new 0 0 1200 1200" xml:space="preserve">
<g>
	<path fill="#575756" d="M780.386,530.735h-43.937c-7.031-29.383-18.111-57.275-32.325-82.988l28.581-29.496
		c10.161-10.544,9.934-27.317-0.614-37.443l-81.458-78.555c-10.544-10.204-27.356-9.899-37.521,0.649l-23.612,24.414
		c-24.148-14.942-50.284-26.859-77.945-35.42v-29.993c0-14.633-11.769-26.515-26.515-26.515H371.866
		c-14.598,0-26.515,11.882-26.515,26.515v23.268c-35.001,7.453-68.089,20.595-97.813,38.284l-14.445-13.831
		c-10.544-10.161-27.434-9.895-37.595,0.614l-78.708,81.38c-10.086,10.548-9.707,27.395,0.685,37.599l12.61,11.957
		c-16.123,27.665-28.428,57.694-35.991,89.561H76.593C62,530.735,50,542.543,50,557.176v113.208c0,14.558,12,26.48,26.593,26.48
		h20.404c9.476,34.348,24.531,66.481,43.785,95.367l-16.503,17.039c-10.239,10.548-9.934,27.282,0.763,37.521l81.306,78.555
		c10.622,10.126,27.356,10.012,37.599-0.571l21.241-22.2c25.067,12.763,51.966,22.427,80.163,28.464v34.579
		c0,14.672,11.917,26.593,26.515,26.593h113.173c14.746,0,26.515-11.921,26.515-26.593v-41.453
		c28.733-8.713,55.706-21.206,80.543-36.989l31.789,30.721c10.544,10.239,27.356,10.012,37.595-0.536l78.634-81.458
		c10.165-10.544,9.781-27.356-0.689-37.521l-33.851-32.513c11.769-21.703,21.092-44.783,27.892-69.005h46.919
		c14.672,0,26.593-11.921,26.593-26.48V557.176C806.98,542.543,795.058,530.735,780.386,530.735z M415.193,785.619
		c-98.04,0-177.589-79.396-177.589-177.628c0-97.965,79.549-177.436,177.589-177.436c98.118,0,177.593,79.471,177.593,177.436
		C592.786,706.223,513.311,785.619,415.193,785.619z"/>
	<path fill="#575756" d="M1113.865,310.238l-22.161,6.992c-8.251-13.756-18.111-25.944-29.418-36.719l9.703-19.218
		c3.517-7.031,0.689-15.4-6.342-18.991l-53.414-26.515c-6.956-3.361-15.36-0.689-18.874,6.42l-7.872,15.893
		c-14.445-3.666-29.649-5.462-44.857-5.348l-4.738-15.169c-2.293-7.375-10.392-11.425-17.575-9.171l-57.005,18.072
		c-7.336,2.293-11.542,10.126-9.097,17.501l3.67,11.769c-16.429,9.398-30.948,21.088-43.1,34.731l-9.629-4.699
		c-6.8-3.404-15.282-0.536-18.796,6.342l-26.593,53.492c-3.365,6.874-0.61,15.396,6.417,18.835l8.025,3.975
		c-3.666,16.542-5.043,33.585-3.744,50.816l-8.787,2.79c-7.489,2.254-11.538,10.2-9.171,17.536l17.958,57.009
		c2.293,7.41,10.086,11.499,17.501,9.054l10.239-3.286c10.317,15.897,22.771,29.649,37.216,41.073l-5.579,11.194
		c-3.439,6.956-0.61,15.439,6.342,18.8l53.414,26.707c6.804,3.365,15.361,0.649,18.8-6.456l7.262-14.406
		c14.441,2.41,29.649,2.942,44.853,1.604l5.505,17.462c2.214,7.336,10.313,11.35,17.497,9.132l57.009-18.033
		c7.336-2.293,11.538-10.165,9.167-17.614l-6.647-20.861c13.068-8.979,24.684-19.484,34.618-31.406l20.862,10.466
		c6.953,3.517,15.513,0.728,18.952-6.264l26.589-53.492c3.439-6.917,0.689-15.36-6.342-18.874l-22.16-10.967
		c2.524-12.763,3.517-25.905,3.134-39.047l23.612-7.528c7.336-2.293,11.385-10.239,9.018-17.501l-17.88-56.966
		C1129.073,311.917,1121.279,307.906,1113.865,310.238z M970.511,496.501c-49.29,15.587-101.94-11.843-117.606-61.133
		c-15.513-49.403,11.847-102.015,61.211-117.606c49.438-15.509,102.015,11.882,117.528,61.098
		C1047.309,428.263,1019.949,480.874,970.511,496.501z"/>
</g>
</svg>
