<?xml version="1.0" encoding="UTF-8" standalone="no"?>
<!DOCTYPE svg PUBLIC "-//W3C//DTD SVG 1.1//EN" "http://www.w3.org/Graphics/SVG/1.1/DTD/svg11.dtd">
<svg width="100%" height="100%" viewBox="0 0 40 40" version="1.1" xmlns="http://www.w3.org/2000/svg" xmlns:xlink="http://www.w3.org/1999/xlink" xml:space="preserve" xmlns:serif="http://www.serif.com/" style="fill-rule:evenodd;clip-rule:evenodd;stroke-linejoin:round;stroke-miterlimit:2;">
    <rect id="Artboard1" x="0" y="0" width="40" height="40" style="fill:rgb(22,22,22);fill-opacity:0;"/>
    <g id="Artboard11" serif:id="Artboard1">
        <g transform="matrix(0.788146,0.783876,-0.697941,0.69416,9.82404,-14.6177)">
            <path d="M37.235,2.908C37.235,2.203 36.729,1.631 36.105,1.631L20.849,1.631C20.225,1.631 19.719,2.203 19.719,2.908L19.719,5.461C19.719,6.166 20.225,6.738 20.849,6.738L36.105,6.738C36.729,6.738 37.235,6.166 37.235,5.461L37.235,2.908Z" style="fill:white;"/>
        </g>
        <g transform="matrix(0.973393,0.96812,-0.989881,0.984519,3.81255,-32.3992)">
            <path d="M38.742,2.243C38.742,1.983 38.528,1.773 38.265,1.773L32.393,1.773C32.13,1.773 31.916,1.983 31.916,2.243L31.916,3.182C31.916,3.441 32.13,3.652 32.393,3.652L38.265,3.652C38.528,3.652 38.742,3.441 38.742,3.182L38.742,2.243Z" style="fill:white;"/>
        </g>
        <g transform="matrix(-0.973393,0.96812,-0.989881,-0.984519,69.9003,-24.0713)">
            <path d="M38.742,2.243C38.742,1.983 38.528,1.773 38.265,1.773L32.393,1.773C32.13,1.773 31.916,1.983 31.916,2.243L31.916,3.182C31.916,3.441 32.13,3.652 32.393,3.652L38.265,3.652C38.528,3.652 38.742,3.441 38.742,3.182L38.742,2.243Z" style="fill:white;"/>
        </g>
        <g transform="matrix(0.987037,0,0,0.98169,-4.3336,5.15283)">
            <path d="M5.935,34.972L4.996,34.033" style="fill:none;"/>
        </g>
        <g transform="matrix(0.987037,0,0,0.98169,0.130644,0.464103)">
            <path d="M4.893,34.048C4.93,34.01 4.952,33.959 4.952,33.905C4.956,33.115 4.986,26.969 4.994,25.275C4.995,24.999 5.105,24.735 5.3,24.54C5.883,23.957 7.176,22.664 8.044,21.796C8.518,21.322 9.284,21.322 9.758,21.796C10.647,22.685 12.011,24.049 12.776,24.814C13.093,25.13 13.603,25.13 13.92,24.814C14.155,24.578 14.428,24.305 14.665,24.069C14.818,23.916 14.903,23.708 14.904,23.491C14.904,23.274 14.818,23.066 14.665,22.913C13.901,22.15 12.549,20.797 11.662,19.911C11.433,19.682 11.304,19.37 11.304,19.044C11.304,18.719 11.433,18.407 11.662,18.178C12.191,17.649 12.865,16.975 13.393,16.447C13.867,15.973 14.633,15.973 15.107,16.447C15.996,17.336 17.36,18.7 18.125,19.465C18.441,19.781 18.952,19.781 19.268,19.465C19.504,19.229 19.777,18.957 20.013,18.72C20.166,18.567 20.252,18.359 20.252,18.142C20.252,17.925 20.166,17.718 20.013,17.565C19.25,16.801 17.897,15.449 17.011,14.562C16.782,14.333 16.653,14.021 16.653,13.696C16.653,13.37 16.782,13.058 17.011,12.829C17.888,11.951 19.237,10.603 20.111,9.729C20.585,9.255 21.351,9.255 21.826,9.729C23.728,11.631 28.286,16.189 30.197,18.1C30.426,18.329 30.555,18.641 30.555,18.967C30.555,19.292 30.426,19.604 30.197,19.833C27.182,22.848 17.239,32.792 15.389,34.641C15.198,34.833 14.941,34.943 14.671,34.95C13.013,34.991 6.971,35.142 6.2,35.161C6.148,35.162 6.099,35.184 6.062,35.221C5.596,35.69 2.418,38.884 1.702,39.604C1.623,39.684 1.495,39.684 1.416,39.604C1.191,39.378 0.759,38.944 0.534,38.718C0.455,38.639 0.455,38.51 0.534,38.43C1.25,37.711 4.42,34.523 4.893,34.048Z" style="fill:white;"/>
        </g>
    </g>
</svg>
